<svg xmlns="http://www.w3.org/2000/svg" viewBox="0 0 212.01 201"><g id="Capa_2" data-name="Capa 2"><g id="Capa_1-2" data-name="Capa 1"><path d="M164.69,200.5a10.36,10.36,0,0,1-4.88-1.2L106,171.2,52.21,199.3a10.56,10.56,0,0,1-15.28-11.15l10.25-59.38L3.71,86.72a10.55,10.55,0,0,1,5.82-18L69.67,60,96.55,5.88c3.57-7.17,15.34-7.17,18.91,0L142.33,60l60.15,8.73a10.55,10.55,0,0,1,5.82,18l-43.47,42.05,10.25,59.38a10.55,10.55,0,0,1-4.18,10.32,10.44,10.44,0,0,1-6.21,2" style="fill:#fff;stroke:#000;stroke-miterlimit:10"/></g></g></svg>