<svg xmlns="http://www.w3.org/2000/svg" viewBox="0 0 303.84 303.45"><g id="Capa_2" data-name="Capa 2"><g id="Capa_1-2" data-name="Capa 1"><path d="M227,.11V.24c-18.37,0-36.75-.07-55.13,0a23.84,23.84,0,0,0-17.37,7.19Q80.6,81.53,6.6,155.52a23.4,23.4,0,0,0-4,5c-4.64,8.3-3.07,16.87,4.32,24.27,37.23,37.25,74.59,74.38,111.63,111.82,9,9.07,21.47,9.13,30.57-.05q71.75-72.36,144.13-144.1c7.22-7.16,10.59-15,10.57-24.85q-.07-51.93,0-103.85A23.48,23.48,0,0,0,279.59,0C262.08.4,244.55.11,227,.11Z" style="fill:#fff"/><path d="M227,.11c17.52,0,35,.29,52.56-.1a23.48,23.48,0,0,1,24.23,23.77q0,51.91,0,103.85c0,9.85-3.35,17.69-10.57,24.85q-72.4,71.72-144.13,144.1c-9.1,9.18-21.61,9.12-30.57.05-37-37.44-74.4-74.57-111.63-111.82-7.39-7.4-9-16-4.32-24.27a23.4,23.4,0,0,1,4-5q73.94-74,147.93-148A23.84,23.84,0,0,1,171.9.28c18.38-.11,36.76,0,55.13,0Z" style="fill:#fff"/><path d="M270.73,59.46A26.36,26.36,0,1,1,244.3,33,26.6,26.6,0,0,1,270.73,59.46ZM244.34,72.54a13.21,13.21,0,0,0,13.19-13.08,13.17,13.17,0,1,0-13.19,13.08Z" style="fill:#fff"/><path d="M244.34,72.54a13.25,13.25,0,0,1-13.15-13.13,13.17,13.17,0,1,1,26.34.05A13.21,13.21,0,0,1,244.34,72.54Z" style="fill:#fff"/></g></g></svg>